<svg width="64" height="64" viewBox="0 0 64 64" fill="none" xmlns="http://www.w3.org/2000/svg">
<path fill-rule="evenodd" clip-rule="evenodd" d="M10.0508 24.5304C10.0508 24.6704 13.5408 33.0404 13.5408 33.0404L19.2708 33.0904C22.9157 33.1205 26.5297 32.4202 29.8995 31.0307C33.2692 29.6413 36.3265 27.5908 38.8908 25.0004L42.8908 20.9404C42.8908 20.9404 39.3708 12.3404 39.4008 12.4304C39.4308 12.5204 10.0008 24.3904 10.0508 24.5304Z" fill="white"/>
<path fill-rule="evenodd" clip-rule="evenodd" d="M40.4701 15.0009L29.8101 25.7009C29.3391 26.1788 28.7768 26.557 28.1566 26.813C27.5364 27.069 26.871 27.1975 26.2001 27.1909L11.0801 27.0009L10.0801 24.4909L39.4401 12.4609L40.4701 15.0009Z" fill="#282828"/>
<path fill-rule="evenodd" clip-rule="evenodd" d="M51.0001 41.9305L60.8001 34.5305C61.1234 34.2863 61.356 33.9413 61.4611 33.5501C61.5661 33.1588 61.5376 32.7437 61.3801 32.3705C59.8979 28.8984 57.1217 26.1401 53.6401 24.6805C53.267 24.5176 52.8499 24.4853 52.4562 24.5887C52.0624 24.6921 51.715 24.9253 51.4701 25.2505C49.9101 27.2505 46.5301 31.7605 44.0801 35.0105C42.1743 37.5364 39.926 39.7846 37.4001 41.6905L27.7301 49.0005C27.3845 49.2596 27.1418 49.6327 27.0448 50.0536C26.9478 50.4745 27.0028 50.9162 27.2001 51.3005C28.8311 54.5711 31.476 57.2266 34.7401 58.8705C35.1203 59.06 35.5551 59.1097 35.9682 59.011C36.3814 58.9123 36.7467 58.6714 37.0001 58.3305C38.5801 56.3305 41.9201 51.8405 44.3601 48.6105C46.2564 46.0896 48.4907 43.8419 51.0001 41.9305V41.9305Z" fill="#F8F9FA"/>
<path fill-rule="evenodd" clip-rule="evenodd" d="M59.7091 29.4297C60.3717 30.3438 60.9286 31.3301 61.3691 32.3697C61.5291 32.7441 61.5589 33.1614 61.4538 33.5548C61.3486 33.9482 61.1146 34.295 60.7891 34.5397L50.9991 41.9297C48.4755 43.8383 46.2276 46.0862 44.3191 48.6097C41.8891 51.8397 38.5391 56.2597 36.9791 58.3297C36.7244 58.669 36.3591 58.9087 35.9465 59.0073C35.5338 59.1059 35.0996 59.0572 34.7191 58.8697C33.7735 58.3977 32.876 57.835 32.0391 57.1897L40.2391 46.3397C42.8105 42.9398 45.8391 39.9112 49.2391 37.3397L59.7091 29.4297Z" fill="#E8EAEC"/>
<path fill-rule="evenodd" clip-rule="evenodd" d="M22 6.54068C21.3228 6.52344 20.6492 6.64396 20.0201 6.89493C19.3909 7.14591 18.8193 7.5221 18.34 8.00068L3.76997 22.6807C3.62547 22.8288 3.5275 23.016 3.48812 23.2191C3.44874 23.4223 3.46969 23.6325 3.54837 23.8239C3.62705 24.0153 3.76002 24.1795 3.9309 24.2962C4.10177 24.4129 4.30307 24.477 4.50997 24.4807L25.17 24.6707C25.8402 24.6785 26.5051 24.5516 27.1253 24.2973C27.7454 24.0431 28.3082 23.6667 28.78 23.1907L43.35 8.54068C43.4993 8.3944 43.6015 8.20688 43.6436 8.00214C43.6857 7.7974 43.6657 7.58475 43.5863 7.39143C43.5068 7.1981 43.3714 7.0329 43.1975 6.91697C43.0236 6.80104 42.819 6.73966 42.61 6.74068L22 6.54068Z" fill="white"/>
<path d="M47.2405 45.8099C46.9781 45.8088 46.7267 45.7047 46.5405 45.5199L40.4705 39.4499C40.2842 39.2626 40.1797 39.0091 40.1797 38.7449C40.1797 38.4808 40.2842 38.2273 40.4705 38.0399C40.5634 37.9462 40.674 37.8718 40.7959 37.821C40.9178 37.7703 41.0485 37.7441 41.1805 37.7441C41.3125 37.7441 41.4432 37.7703 41.5651 37.821C41.6869 37.8718 41.7975 37.9462 41.8905 38.0399L48.0005 44.0999C48.0942 44.1929 48.1686 44.3035 48.2194 44.4254C48.2701 44.5472 48.2963 44.6779 48.2963 44.8099C48.2963 44.942 48.2701 45.0727 48.2194 45.1945C48.1686 45.3164 48.0942 45.427 48.0005 45.5199C47.907 45.6126 47.7962 45.6859 47.6744 45.7357C47.5526 45.7855 47.4221 45.8107 47.2905 45.8099" fill="#FFC55F"/>
<path d="M48.1602 52.0005C47.9161 52.0026 47.6796 51.9153 47.4954 51.755C47.3112 51.5947 47.1919 51.3726 47.1602 51.1305L46.3502 45.0505C46.3157 44.7853 46.388 44.5173 46.5512 44.3053C46.7143 44.0934 46.955 43.955 47.2202 43.9205C47.4854 43.886 47.7535 43.9583 47.9654 44.1215C48.1773 44.2847 48.3157 44.5253 48.3502 44.7905L49.1602 50.8705C49.1785 51.0013 49.1707 51.1343 49.1373 51.2621C49.1039 51.3898 49.0456 51.5096 48.9656 51.6147C48.8857 51.7197 48.7857 51.8079 48.6715 51.8741C48.5573 51.9404 48.4311 51.9833 48.3002 52.0005H48.1602Z" fill="#FFC55F"/>
<path d="M53.4303 46.7309H53.3003L47.2203 45.9209C46.9579 45.886 46.72 45.7486 46.5588 45.5386C46.3976 45.3287 46.3262 45.0634 46.3603 44.8009C46.3775 44.67 46.4204 44.5438 46.4867 44.4296C46.5529 44.3154 46.6411 44.2154 46.7461 44.1355C46.8512 44.0555 46.971 43.9972 47.0987 43.9638C47.2264 43.9304 47.3595 43.9226 47.4903 43.9409L53.5603 44.7509C53.8255 44.7681 54.073 44.89 54.2483 45.0897C54.4237 45.2895 54.5125 45.5507 54.4953 45.8159C54.478 46.0811 54.3561 46.3286 54.1564 46.5039C53.9567 46.6793 53.6955 46.7681 53.4303 46.7509V46.7309ZM20.0003 43.1309C19.7758 43.1392 19.5551 43.0717 19.3737 42.9392C19.1923 42.8068 19.0608 42.6172 19.0003 42.4009L14.0003 24.6009C13.9568 24.4421 13.9533 24.275 13.9899 24.1145C14.0266 23.9541 14.1022 23.8051 14.2103 23.6809L21.2103 15.7409C21.3888 15.555 21.6321 15.4453 21.8895 15.4345C22.147 15.4237 22.3987 15.5127 22.5921 15.6829C22.7855 15.8531 22.9058 16.0914 22.9278 16.3482C22.9498 16.6049 22.8719 16.8602 22.7103 17.0609L16.1103 24.5909L21.0003 41.8609C21.0711 42.1155 21.0383 42.3877 20.909 42.6182C20.7797 42.8487 20.5645 43.0186 20.3103 43.0909C20.2209 43.1054 20.1297 43.1054 20.0403 43.0909" fill="#FFC55F"/>
</svg>
