<svg width="215" height="40" viewBox="0 0 215 40" fill="none" xmlns="http://www.w3.org/2000/svg">
<path fill-rule="evenodd" clip-rule="evenodd" d="M5.33988 16.032C5.33988 16.1064 7.19394 20.553 7.19394 20.553L10.238 20.5795C12.1743 20.5955 14.0943 20.2235 15.8845 19.4853C17.6746 18.7472 19.2988 17.6579 20.6611 16.2817L22.7861 14.1248C22.7861 14.1248 20.9161 9.55608 20.9321 9.60389C20.948 9.6517 5.31332 15.9576 5.33988 16.032Z" fill="white"/>
<path fill-rule="evenodd" clip-rule="evenodd" d="M21.5002 10.9685L15.837 16.6529C15.5868 16.9068 15.2881 17.1077 14.9586 17.2437C14.6291 17.3796 14.2756 17.4479 13.9192 17.4445L5.88672 17.3435L5.35547 16.0101L20.953 9.61914L21.5002 10.9685Z" fill="#282828"/>
<path fill-rule="evenodd" clip-rule="evenodd" d="M27.0929 25.2756L32.2992 21.3444C32.4709 21.2147 32.5945 21.0314 32.6503 20.8235C32.7061 20.6157 32.691 20.3951 32.6073 20.1969C31.8199 18.3523 30.345 16.887 28.4954 16.1116C28.2972 16.025 28.0756 16.0079 27.8664 16.0628C27.6572 16.1177 27.4727 16.2416 27.3426 16.4144C26.5138 17.4769 24.7182 19.8728 23.4167 21.5994C22.4042 22.9412 21.2098 24.1356 19.8679 25.1481L14.7307 29.0316C14.5471 29.1692 14.4182 29.3674 14.3666 29.591C14.3151 29.8147 14.3443 30.0493 14.4492 30.2534C15.3156 31.9909 16.7207 33.4017 18.4548 34.275C18.6568 34.3757 18.8877 34.4021 19.1072 34.3496C19.3267 34.2972 19.5208 34.1692 19.6554 33.9881C20.4948 32.9256 22.2692 30.5403 23.5654 28.8244C24.5728 27.4852 25.7598 26.2911 27.0929 25.2756V25.2756Z" fill="#F8F9FA"/>
<path fill-rule="evenodd" clip-rule="evenodd" d="M31.7212 18.6348C32.0732 19.1204 32.369 19.6444 32.603 20.1966C32.6881 20.3956 32.7039 20.6173 32.648 20.8263C32.5922 21.0352 32.4678 21.2195 32.2949 21.3495L27.094 25.2754C25.7534 26.2893 24.5592 27.4835 23.5452 28.8241C22.2543 30.5401 20.4746 32.8882 19.6459 33.9879C19.5105 34.1682 19.3165 34.2955 19.0973 34.3479C18.8781 34.4002 18.6474 34.3744 18.4452 34.2748C17.9429 34.024 17.4661 33.7251 17.0215 33.3823L21.3777 27.6182C22.7438 25.812 24.3528 24.203 26.159 22.837L31.7212 18.6348Z" fill="#E8EAEC"/>
<path fill-rule="evenodd" clip-rule="evenodd" d="M11.6885 6.47352C11.3287 6.46435 10.9709 6.52838 10.6366 6.66171C10.3024 6.79504 9.99874 6.99489 9.74408 7.24914L2.00377 15.0479C1.92701 15.1266 1.87496 15.226 1.85404 15.3339C1.83312 15.4419 1.84425 15.5536 1.88605 15.6552C1.92785 15.7569 1.99849 15.8441 2.08927 15.9061C2.18004 15.9681 2.28698 16.0022 2.3969 16.0041L13.3725 16.1051C13.7286 16.1093 14.0818 16.0418 14.4113 15.9067C14.7407 15.7717 15.0397 15.5717 15.2903 15.3188L23.0306 7.53602C23.11 7.4583 23.1643 7.35869 23.1866 7.24992C23.209 7.14115 23.1984 7.02818 23.1562 6.92547C23.114 6.82277 23.042 6.73501 22.9496 6.67342C22.8572 6.61183 22.7486 6.57922 22.6375 6.57977L11.6885 6.47352Z" fill="black"/>
<path d="M25.0967 27.3357C24.9574 27.3351 24.8238 27.2798 24.7249 27.1817L21.5002 23.957C21.4012 23.8575 21.3457 23.7228 21.3457 23.5825C21.3457 23.4421 21.4012 23.3075 21.5002 23.2079C21.5496 23.1581 21.6083 23.1186 21.6731 23.0916C21.7378 23.0647 21.8072 23.0508 21.8774 23.0508C21.9475 23.0508 22.0169 23.0647 22.0817 23.0916C22.1464 23.1186 22.2052 23.1581 22.2546 23.2079L25.5005 26.4273C25.5503 26.4767 25.5898 26.5354 25.6168 26.6002C25.6438 26.6649 25.6576 26.7344 25.6576 26.8045C25.6576 26.8746 25.6438 26.9441 25.6168 27.0088C25.5898 27.0735 25.5503 27.1323 25.5005 27.1817C25.4509 27.2309 25.392 27.2699 25.3273 27.2963C25.2625 27.3227 25.1932 27.3361 25.1233 27.3357" fill="#FFC55F"/>
<path d="M25.5852 30.6251C25.4555 30.6262 25.3298 30.5798 25.232 30.4947C25.1341 30.4095 25.0708 30.2915 25.0539 30.1629L24.6236 26.9329C24.6053 26.792 24.6437 26.6496 24.7304 26.537C24.8171 26.4245 24.9449 26.3509 25.0858 26.3326C25.2267 26.3143 25.3691 26.3527 25.4817 26.4394C25.5943 26.526 25.6678 26.6539 25.6861 26.7948L26.1164 30.0248C26.1261 30.0942 26.122 30.1649 26.1043 30.2328C26.0865 30.3006 26.0555 30.3643 26.013 30.4201C25.9706 30.4759 25.9175 30.5228 25.8568 30.558C25.7961 30.5931 25.7291 30.616 25.6596 30.6251H25.5852Z" fill="#FFC55F"/>
<path d="M28.384 27.8259H28.3149L25.0849 27.3956C24.9455 27.3771 24.8191 27.304 24.7335 27.1925C24.6479 27.081 24.6099 26.94 24.628 26.8006C24.6372 26.731 24.66 26.664 24.6952 26.6033C24.7304 26.5427 24.7772 26.4896 24.833 26.4471C24.8888 26.4046 24.9525 26.3736 25.0203 26.3559C25.0882 26.3381 25.1589 26.334 25.2284 26.3437L28.453 26.774C28.5939 26.7832 28.7254 26.8479 28.8186 26.954C28.9117 27.0601 28.9589 27.1989 28.9498 27.3398C28.9406 27.4807 28.8758 27.6122 28.7697 27.7053C28.6636 27.7985 28.5249 27.8457 28.384 27.8365V27.8259ZM10.6243 25.9134C10.505 25.9178 10.3878 25.8819 10.2914 25.8116C10.1951 25.7412 10.1252 25.6405 10.093 25.5256L7.43679 16.0693C7.41372 15.985 7.41183 15.8962 7.43129 15.811C7.45075 15.7257 7.49096 15.6466 7.54835 15.5806L11.2671 11.3625C11.3619 11.2637 11.4912 11.2054 11.628 11.1997C11.7647 11.1939 11.8984 11.2412 12.0012 11.3317C12.104 11.4221 12.1679 11.5487 12.1795 11.6851C12.1912 11.8215 12.1498 11.9571 12.064 12.0637L8.55772 16.064L11.1555 25.2387C11.1932 25.374 11.1757 25.5186 11.1071 25.641C11.0384 25.7635 10.924 25.8538 10.789 25.8921C10.7415 25.8999 10.693 25.8999 10.6455 25.8921" fill="#FFC55F"/>
<path d="M41.1 9.562V30.044H42.024H45.94V24.17V16.822L48.382 20.496L51.308 24.852L54.212 20.496L56.676 16.8V24.192V30.044H60.57H61.516V9.518V8.088H56.676H56.654L51.308 16.118L45.94 8.088H41.1V9.562ZM63.723 8.088L70.917 18.78L71.555 19.704V26.502V30.044H76.395V26.898V19.308L76.769 18.78L83.963 8.088H78.133L76.395 10.662L73.843 14.446L71.555 11.058L69.575 8.088H63.723ZM105.169 12.928H110.537H115.377V8.088H105.169C103.211 8.088 101.363 8.66 99.8013 9.628C98.4593 10.464 97.3373 11.586 96.5013 12.928C95.5113 14.49 94.9613 16.338 94.9613 18.296V19.836C94.9613 21.794 95.5113 23.642 96.5013 25.204C97.3373 26.546 98.4593 27.668 99.8013 28.504C101.363 29.472 103.211 30.044 105.169 30.044H115.377V25.204V21.486V16.646H110.537H105.697V21.486H110.537V25.204H105.169C102.221 25.204 99.8013 22.784 99.8013 19.836V18.296C99.8013 15.37 102.221 12.928 105.169 12.928ZM117.584 8.088V19.836C117.584 23.488 119.542 26.7 122.446 28.504C123.986 29.472 125.834 30.044 127.792 30.044C129.772 30.044 131.598 29.472 133.16 28.504C136.064 26.7 138 23.488 138 19.836V8.088H133.16V12.928V19.836C133.16 22.784 130.74 25.204 127.792 25.204C124.866 25.204 122.446 22.784 122.446 19.836V12.928V8.088H117.584ZM140.207 8.088V30.044H145.047V8.088H140.207ZM147.254 8.088V12.928V25.204V30.044H157.462C159.42 30.044 161.268 29.472 162.83 28.504C164.15 27.668 165.294 26.546 166.13 25.204C167.098 23.642 167.67 21.794 167.67 19.836V18.296C167.67 16.338 167.098 14.49 166.13 12.928C165.294 11.586 164.15 10.464 162.83 9.628C161.268 8.66 159.42 8.088 157.462 8.088H147.254ZM157.462 12.928C160.388 12.928 162.83 15.37 162.83 18.296V19.836C162.83 22.784 160.388 25.204 157.462 25.204H152.094V12.928H157.462ZM169.877 12.928V21.486V25.204V30.044H174.717H190.293V25.204H185.453H174.717V21.486H182.109H185.453H187.279V16.646H185.453H182.109H174.717V12.928H185.453H190.293V8.088H174.717H169.877V12.928ZM197.34 30.044V24.038H202.972L207.064 30.044H212.916L208.318 23.29C211.024 22.014 212.916 19.264 212.916 16.074C212.916 11.674 209.33 8.088 204.952 8.088H197.34H192.5V24.038V30.044H197.34ZM197.34 19.198V15.832V12.928H201.234H204.952C206.668 12.928 208.076 14.358 208.076 16.074C208.076 17.592 206.954 18.89 205.48 19.154C205.304 19.198 205.128 19.198 204.952 19.198H199.65H197.34Z" fill="#2F2F2F"/>
</svg>
