<svg width="26" height="26" viewBox="0 0 26 26" fill="none" xmlns="http://www.w3.org/2000/svg">
<path fill-rule="evenodd" clip-rule="evenodd" d="M4.07424 9.94475C4.07424 10.0015 5.48911 13.3948 5.48911 13.3948L7.81208 13.415C9.28973 13.4272 10.7549 13.1433 12.121 12.58C13.4871 12.0167 14.7265 11.1855 15.7661 10.1353L17.3878 8.48935C17.3878 8.48935 15.9607 5.00286 15.9729 5.03935C15.9851 5.07583 4.05397 9.888 4.07424 9.94475Z" fill="#3F3F3F"/>
<path fill-rule="evenodd" clip-rule="evenodd" d="M16.4062 6.08051L12.0846 10.4183C11.8937 10.6121 11.6657 10.7654 11.4142 10.8692C11.1628 10.973 10.8931 11.0251 10.6211 11.0224L4.49134 10.9454L4.08594 9.92781L15.9886 5.05078L16.4062 6.08051Z" fill="#282828"/>
<path fill-rule="evenodd" clip-rule="evenodd" d="M20.6759 16.9979L24.6489 13.9979C24.7799 13.8989 24.8742 13.759 24.9168 13.6004C24.9594 13.4418 24.9479 13.2735 24.884 13.1222C24.2831 11.7146 23.1576 10.5964 21.7462 10.0046C21.5949 9.93861 21.4258 9.92551 21.2662 9.96744C21.1065 10.0094 20.9657 10.1039 20.8664 10.2357C20.234 11.0465 18.8637 12.8749 17.8705 14.1925C17.0978 15.2165 16.1864 16.1279 15.1624 16.9006L11.2421 19.8641C11.102 19.9692 11.0036 20.1204 10.9643 20.291C10.9249 20.4617 10.9472 20.6408 11.0272 20.7965C11.6884 22.1225 12.7607 23.199 14.084 23.8655C14.2381 23.9423 14.4144 23.9624 14.5819 23.9224C14.7494 23.8824 14.8975 23.7847 15.0002 23.6465C15.6408 22.8357 16.9948 21.0155 17.984 19.706C18.7528 18.684 19.6586 17.7728 20.6759 16.9979V16.9979Z" fill="#494949"/>
<path fill-rule="evenodd" clip-rule="evenodd" d="M24.2058 11.9316C24.4745 12.3022 24.7003 12.7021 24.8788 13.1235C24.9437 13.2753 24.9558 13.4445 24.9132 13.604C24.8705 13.7635 24.7756 13.9041 24.6437 14.0033L20.6748 16.9992C19.6517 17.773 18.7404 18.6843 17.9667 19.7073C16.9815 21.0168 15.6234 22.8087 14.991 23.6479C14.8877 23.7854 14.7397 23.8826 14.5724 23.9226C14.4051 23.9625 14.2291 23.9428 14.0748 23.8668C13.6914 23.6754 13.3276 23.4473 12.9883 23.1857L16.3126 18.787C17.3551 17.4087 18.5829 16.1809 19.9613 15.1384L24.2058 11.9316Z" fill="#E8EAEC"/>
<path fill-rule="evenodd" clip-rule="evenodd" d="M8.9189 2.65105C8.64439 2.64406 8.37131 2.69292 8.11625 2.79466C7.86118 2.89641 7.62945 3.04892 7.43512 3.24294L1.52836 9.19429C1.46979 9.25434 1.43007 9.33023 1.4141 9.41258C1.39814 9.49494 1.40663 9.58017 1.43853 9.65776C1.47042 9.73535 1.52433 9.8019 1.59361 9.84922C1.66288 9.89653 1.74449 9.92253 1.82836 9.92402L10.204 10.001C10.4757 10.0042 10.7453 9.95276 10.9967 9.84969C11.2482 9.74662 11.4763 9.59405 11.6676 9.40105L17.5743 3.46186C17.6348 3.40255 17.6763 3.32653 17.6934 3.24353C17.7104 3.16053 17.7023 3.07432 17.6701 2.99594C17.6379 2.91757 17.583 2.85059 17.5125 2.8036C17.442 2.7566 17.359 2.73171 17.2743 2.73213L8.9189 2.65105Z" fill="#3F3F3F"/>
<path d="M19.1515 18.5707C19.0452 18.5703 18.9433 18.528 18.8678 18.4531L16.407 15.9923C16.3314 15.9164 16.2891 15.8136 16.2891 15.7065C16.2891 15.5994 16.3314 15.4967 16.407 15.4207C16.4446 15.3827 16.4895 15.3525 16.5389 15.332C16.5883 15.3114 16.6413 15.3008 16.6948 15.3008C16.7483 15.3008 16.8013 15.3114 16.8507 15.332C16.9001 15.3525 16.9449 15.3827 16.9826 15.4207L19.4597 17.8775C19.4977 17.9151 19.5278 17.96 19.5484 18.0094C19.569 18.0588 19.5796 18.1118 19.5796 18.1653C19.5796 18.2188 19.569 18.2718 19.5484 18.3212C19.5278 18.3706 19.4977 18.4154 19.4597 18.4531C19.4218 18.4907 19.3768 18.5204 19.3275 18.5406C19.2781 18.5608 19.2252 18.571 19.1718 18.5707" fill="#FFC55F"/>
<path d="M19.5243 21.0818C19.4253 21.0827 19.3295 21.0473 19.2548 20.9823C19.1801 20.9173 19.1318 20.8273 19.1189 20.7291L18.7905 18.2643C18.7765 18.1567 18.8059 18.0481 18.872 17.9622C18.9381 17.8762 19.0357 17.8201 19.1432 17.8061C19.2507 17.7922 19.3594 17.8215 19.4453 17.8876C19.5312 17.9538 19.5874 18.0513 19.6013 18.1589L19.9297 20.6237C19.9371 20.6767 19.934 20.7307 19.9204 20.7824C19.9069 20.8342 19.8832 20.8828 19.8508 20.9254C19.8184 20.968 19.7779 21.0037 19.7316 21.0306C19.6853 21.0574 19.6341 21.0748 19.5811 21.0818H19.5243Z" fill="#FFC55F"/>
<path d="M21.6616 18.9439H21.6089L19.144 18.6156C19.0377 18.6014 18.9412 18.5457 18.8759 18.4606C18.8105 18.3755 18.7816 18.2679 18.7954 18.1615C18.8024 18.1085 18.8198 18.0573 18.8466 18.011C18.8735 17.9647 18.9092 17.9242 18.9518 17.8918C18.9944 17.8593 19.043 17.8357 19.0948 17.8221C19.1465 17.8086 19.2005 17.8055 19.2535 17.8129L21.7143 18.1412C21.8218 18.1482 21.9222 18.1976 21.9933 18.2786C22.0643 18.3596 22.1003 18.4655 22.0934 18.573C22.0864 18.6805 22.037 18.7809 21.956 18.8519C21.875 18.923 21.7691 18.959 21.6616 18.9521V18.9439ZM8.1089 17.4845C8.01791 17.4879 7.92843 17.4605 7.85489 17.4068C7.78135 17.3531 7.72802 17.2762 7.7035 17.1885L5.67647 9.97232C5.65886 9.90795 5.65742 9.84023 5.67228 9.77516C5.68713 9.7101 5.71781 9.64971 5.7616 9.59935L8.59944 6.38043C8.6718 6.30509 8.77045 6.2606 8.87482 6.25622C8.97919 6.25184 9.08122 6.28791 9.15964 6.35692C9.23806 6.42593 9.28682 6.52255 9.29574 6.62663C9.30467 6.73071 9.27308 6.83421 9.20755 6.91557L6.53187 9.96827L8.51431 16.9696C8.54303 17.0728 8.52973 17.1832 8.47731 17.2767C8.4249 17.3701 8.33763 17.439 8.23458 17.4683C8.19833 17.4742 8.16137 17.4742 8.12512 17.4683" fill="#FFC55F"/>
</svg>
