<svg width="30" height="30" viewBox="0 0 30 30" fill="none" xmlns="http://www.w3.org/2000/svg">
<circle cx="15" cy="15" r="15" fill="#9AE887"/>
<path fill-rule="evenodd" clip-rule="evenodd" d="M6.10159 11.9721C6.10159 12.0289 7.51645 15.4221 7.51645 15.4221L9.83943 15.4424C11.3171 15.4546 12.7822 15.1707 14.1483 14.6074C15.5145 14.0441 16.7539 13.2128 17.7935 12.1626L19.4151 10.5167C19.4151 10.5167 17.9881 7.0302 18.0002 7.06669C18.0124 7.10318 6.08132 11.9153 6.10159 11.9721Z" fill="#3F3F3F"/>
<path fill-rule="evenodd" clip-rule="evenodd" d="M18.4336 8.10785L14.1119 12.4457C13.921 12.6394 13.693 12.7927 13.4416 12.8965C13.1902 13.0003 12.9204 13.0524 12.6484 13.0497L6.51869 12.9727L6.11328 11.9552L18.016 7.07812L18.4336 8.10785Z" fill="#282828"/>
<path fill-rule="evenodd" clip-rule="evenodd" d="M22.7032 19.0252L26.6762 16.0252C26.8073 15.9263 26.9016 15.7864 26.9442 15.6278C26.9867 15.4692 26.9752 15.3009 26.9113 15.1496C26.3105 13.742 25.185 12.6237 23.7735 12.032C23.6222 11.966 23.4531 11.9528 23.2935 11.9948C23.1339 12.0367 22.9931 12.1312 22.8938 12.2631C22.2613 13.0739 20.8911 14.9023 19.8978 16.2198C19.1252 17.2438 18.2137 18.1553 17.1897 18.9279L13.2694 21.8914C13.1293 21.9965 13.0309 22.1477 12.9916 22.3184C12.9523 22.489 12.9746 22.6681 13.0546 22.8239C13.7158 24.1498 14.788 25.2263 16.1113 25.8928C16.2655 25.9696 16.4417 25.9898 16.6092 25.9498C16.7767 25.9097 16.9248 25.8121 17.0276 25.6739C17.6681 24.8631 19.0222 23.0428 20.0113 21.7333C20.7801 20.7114 21.6859 19.8001 22.7032 19.0252V19.0252Z" fill="#494949"/>
<path fill-rule="evenodd" clip-rule="evenodd" d="M26.2332 13.959C26.5018 14.3296 26.7276 14.7294 26.9062 15.1509C26.971 15.3027 26.9831 15.4719 26.9405 15.6313C26.8979 15.7908 26.803 15.9314 26.671 16.0306L22.7021 19.0266C21.6791 19.8003 20.7678 20.7116 19.994 21.7347C19.0089 23.0441 17.6508 24.836 17.0183 25.6752C16.9151 25.8128 16.767 25.9099 16.5997 25.9499C16.4324 25.9899 16.2564 25.9701 16.1021 25.8941C15.7188 25.7028 15.3549 25.4747 15.0156 25.213L18.3399 20.8144C19.3824 19.436 20.6102 18.2082 21.9886 17.1657L26.2332 13.959Z" fill="#E8EAEC"/>
<path fill-rule="evenodd" clip-rule="evenodd" d="M10.9462 4.67839C10.6717 4.6714 10.3987 4.72026 10.1436 4.82201C9.88853 4.92375 9.6568 5.07626 9.46247 5.27028L3.55571 11.2216C3.49713 11.2817 3.45741 11.3576 3.44145 11.4399C3.42548 11.5223 3.43397 11.6075 3.46587 11.6851C3.49777 11.7627 3.55168 11.8292 3.62095 11.8766C3.69022 11.9239 3.77183 11.9499 3.85571 11.9514L12.2314 12.0284C12.5031 12.0316 12.7727 11.9801 13.0241 11.877C13.2755 11.774 13.5036 11.6214 13.6949 11.4284L19.6017 5.4892C19.6622 5.4299 19.7036 5.35388 19.7207 5.27087C19.7378 5.18787 19.7297 5.10166 19.6975 5.02329C19.6652 4.94491 19.6104 4.87794 19.5398 4.83094C19.4693 4.78394 19.3864 4.75906 19.3017 4.75947L10.9462 4.67839Z" fill="#3F3F3F"/>
<path d="M21.1789 20.598C21.0725 20.5976 20.9706 20.5554 20.8951 20.4805L18.4343 18.0197C18.3588 17.9437 18.3164 17.841 18.3164 17.7339C18.3164 17.6268 18.3588 17.524 18.4343 17.448C18.472 17.41 18.5168 17.3799 18.5662 17.3593C18.6156 17.3387 18.6686 17.3281 18.7221 17.3281C18.7757 17.3281 18.8286 17.3387 18.878 17.3593C18.9274 17.3799 18.9723 17.41 19.01 17.448L21.487 19.9048C21.525 19.9425 21.5552 19.9873 21.5757 20.0367C21.5963 20.0861 21.6069 20.1391 21.6069 20.1926C21.6069 20.2462 21.5963 20.2991 21.5757 20.3485C21.5552 20.398 21.525 20.4428 21.487 20.4805C21.4491 20.5181 21.4042 20.5478 21.3548 20.568C21.3054 20.5881 21.2525 20.5984 21.1992 20.598" fill="#FFC55F"/>
<path d="M21.5517 23.1092C21.4527 23.11 21.3568 23.0746 21.2821 23.0096C21.2074 22.9447 21.1591 22.8546 21.1462 22.7565L20.8179 20.2916C20.8039 20.1841 20.8332 20.0754 20.8993 19.9895C20.9655 19.9036 21.063 19.8475 21.1706 19.8335C21.2781 19.8195 21.3868 19.8488 21.4727 19.915C21.5586 19.9811 21.6147 20.0787 21.6287 20.1862L21.9571 22.6511C21.9645 22.7041 21.9613 22.758 21.9478 22.8098C21.9342 22.8616 21.9106 22.9102 21.8782 22.9527C21.8458 22.9953 21.8052 23.0311 21.7589 23.0579C21.7126 23.0848 21.6615 23.1022 21.6084 23.1092H21.5517Z" fill="#FFC55F"/>
<path d="M23.6889 20.9713H23.6362L21.1714 20.6429C21.065 20.6288 20.9686 20.5731 20.9032 20.4879C20.8379 20.4028 20.8089 20.2953 20.8227 20.1889C20.8297 20.1358 20.8471 20.0846 20.874 20.0383C20.9008 19.992 20.9366 19.9515 20.9792 19.9191C21.0217 19.8867 21.0703 19.863 21.1221 19.8495C21.1739 19.8359 21.2278 19.8328 21.2808 19.8402L23.7416 20.1686C23.8492 20.1756 23.9495 20.225 24.0206 20.306C24.0917 20.3869 24.1277 20.4928 24.1207 20.6003C24.1137 20.7079 24.0643 20.8082 23.9833 20.8793C23.9024 20.9504 23.7965 20.9864 23.6889 20.9794V20.9713ZM10.1362 19.5118C10.0453 19.5152 9.95578 19.4878 9.88223 19.4341C9.80869 19.3805 9.75536 19.3036 9.73084 19.2159L7.70381 11.9997C7.68621 11.9353 7.68477 11.8676 7.69962 11.8025C7.71447 11.7374 7.74515 11.6771 7.78895 11.6267L10.6268 8.40778C10.6991 8.33244 10.7978 8.28794 10.9022 8.28356C11.0065 8.27918 11.1086 8.31526 11.187 8.38427C11.2654 8.45328 11.3142 8.54989 11.3231 8.65397C11.332 8.75805 11.3004 8.86156 11.2349 8.94291L8.55922 11.9956L10.5417 18.997C10.5704 19.1002 10.5571 19.2106 10.5047 19.304C10.4522 19.3974 10.365 19.4663 10.2619 19.4956C10.2257 19.5015 10.1887 19.5015 10.1525 19.4956" fill="#FFC55F"/>
</svg>
